<?xml version="1.0" encoding="utf-8"?>
<!-- Generator: Adobe Illustrator 17.0.0, SVG Export Plug-In . SVG Version: 6.00 Build 0)  -->
<!DOCTYPE svg PUBLIC "-//W3C//DTD SVG 1.1//EN" "http://www.w3.org/Graphics/SVG/1.1/DTD/svg11.dtd">
<svg version="1.1" id="Layer_1" xmlns="http://www.w3.org/2000/svg" xmlns:xlink="http://www.w3.org/1999/xlink" x="0px" y="0px"
	 width="165px" height="187px" viewBox="0 0 165 187" enable-background="new 0 0 165 187" xml:space="preserve">
<g>
	<path fill="#C7A674" d="M0,0v187h165V0H0z M159,6v129.685C135.01,130.734,108.81,128,81.375,128
		c-26.581,0-51.999,2.573-75.375,7.236V6H159z M118.562,181l-3.719-8h-65.49l-3.719,8h-2.207l3.719-8H35.391l1.928-3h11.221
		l4.649-10H42.906l1.301-2h9.913l3.719-8h-9.132l0.644-1h8.953l3.254-7h-7.834l0.632-1h7.667l1.86-4h-6.996l0.632-1h6.829l2.325-5
		h2.207l-2.325,5h31.086l-2.325-5h2.207l2.325,5h5.858l0.632,1h-6.025l1.86,4h6.695l0.633,1h-6.863l3.254,7h7.982l0.644,1h-8.161
		l3.719,8h9.722l1.301,2h-10.093l4.649,10h11.765l1.928,3h-12.299l3.719,8H118.562z"/>
	<polygon fill="#C7A674" points="104.149,150 60.046,150 56.327,158 107.869,158 	"/>
	<polygon fill="#C7A674" points="98.105,137 66.09,137 64.23,141 99.965,141 	"/>
	<polygon fill="#C7A674" points="100.43,142 63.765,142 60.511,149 103.684,149 	"/>
	<polygon fill="#C7A674" points="55.397,160 50.748,170 113.448,170 108.799,160 	"/>
</g>
<g>
	<path fill="#C7A674" d="M24.362,97.666v-42.6h18.84c1.959,0,3.77,0.41,5.43,1.229c1.659,0.82,3.09,1.9,4.29,3.24
		c1.2,1.341,2.14,2.86,2.82,4.56c0.68,1.701,1.02,3.411,1.02,5.13c0,2.761-0.689,5.271-2.07,7.53
		c-1.38,2.261-3.25,3.891-5.609,4.891l9.72,16.02h-9.3l-8.7-14.28h-8.16v14.28H24.362z M32.641,76.126h10.38
		c0.76,0,1.471-0.18,2.131-0.54c0.659-0.36,1.229-0.85,1.71-1.47c0.479-0.62,0.859-1.351,1.14-2.19c0.279-0.84,0.42-1.74,0.42-2.7
		c0-0.999-0.16-1.92-0.48-2.76s-0.75-1.569-1.289-2.189c-0.54-0.62-1.161-1.1-1.86-1.44c-0.7-0.339-1.41-0.51-2.13-0.51H32.641
		V76.126z"/>
	<path fill="#C7A674" d="M82.441,97.966c-3.121,0-5.951-0.609-8.491-1.83c-2.54-1.22-4.72-2.84-6.54-4.859s-3.23-4.33-4.229-6.931
		c-1.001-2.6-1.5-5.259-1.5-7.979c0-2.84,0.529-5.56,1.59-8.16c1.06-2.6,2.52-4.899,4.38-6.9c1.86-1.999,4.069-3.589,6.63-4.77
		c2.56-1.18,5.34-1.771,8.34-1.771c3.08,0,5.889,0.631,8.43,1.891c2.539,1.26,4.711,2.91,6.51,4.95
		c1.801,2.04,3.199,4.36,4.201,6.96c0.998,2.601,1.5,5.24,1.5,7.92c0,2.84-0.521,5.55-1.561,8.13c-1.041,2.58-2.48,4.859-4.32,6.84
		c-1.84,1.979-4.041,3.561-6.6,4.74C88.221,97.376,85.441,97.966,82.441,97.966z M70.081,76.366c0,1.84,0.279,3.62,0.84,5.34
		c0.561,1.721,1.37,3.24,2.431,4.56c1.06,1.32,2.359,2.381,3.899,3.181c1.54,0.801,3.29,1.2,5.25,1.2c2,0,3.77-0.41,5.311-1.23
		c1.539-0.819,2.84-1.91,3.9-3.27c1.059-1.359,1.859-2.89,2.4-4.591c0.539-1.699,0.809-3.429,0.809-5.189
		c0-1.84-0.289-3.62-0.869-5.34s-1.4-3.24-2.461-4.561c-1.059-1.319-2.359-2.37-3.898-3.149c-1.541-0.78-3.271-1.17-5.191-1.17
		c-2,0-3.779,0.41-5.339,1.229c-1.56,0.82-2.86,1.9-3.899,3.24c-1.041,1.341-1.83,2.86-2.37,4.56
		C70.351,72.877,70.081,74.606,70.081,76.366z"/>
	<path fill="#C7A674" d="M109.621,97.666v-42.6h18.84c1.959,0,3.77,0.41,5.43,1.229c1.658,0.82,3.09,1.9,4.289,3.24
		c1.201,1.341,2.141,2.86,2.82,4.56c0.68,1.701,1.02,3.411,1.02,5.13c0,2.761-0.689,5.271-2.07,7.53
		c-1.379,2.261-3.25,3.891-5.609,4.891l9.721,16.02h-9.301l-8.699-14.28h-8.16v14.28H109.621z M117.9,76.126h10.379
		c0.76,0,1.471-0.18,2.131-0.54s1.23-0.85,1.711-1.47c0.479-0.62,0.859-1.351,1.139-2.19s0.42-1.74,0.42-2.7
		c0-0.999-0.16-1.92-0.48-2.76s-0.75-1.569-1.289-2.189s-1.16-1.1-1.859-1.44c-0.701-0.339-1.41-0.51-2.131-0.51H117.9V76.126z"/>
</g>
</svg>
